<mxfile host="app.diagrams.net" modified="2023-10-27T02:37:29.497Z" agent="Mozilla/5.0 (Windows NT 10.0; Win64; x64; rv:109.0) Gecko/20100101 Firefox/119.0" version="21.2.7" etag="iY3kWG2bkbczbM6dlkvH" type="github">
  <diagram name="PÃ¡gina-1" id="JpOtx_7V1hyU6-CXZWv8">
    <mxGraphModel>
      <root>
        <mxCell id="0" />
        <mxCell id="1" parent="0" />
      </root>
    </mxGraphModel>
  </diagram>
</mxfile>
